<?xml version="1.0" encoding="utf-8"?>
<svg version="1.1" xmlns:xlink="http://www.w3.org/1999/xlink" width="13px" height="13px" viewBox="18 63  13 13" xmlns="http://www.w3.org/2000/svg">
  <path d="M 24.5 63  C 28.14 63  31 65.86  31 69.5  C 31 73.14  28.14 76  24.5 76  C 20.86 76  18 73.14  18 69.5  C 18 65.86  20.86 63  24.5 63  Z " fill-rule="nonzero" fill="#ffffff" stroke="none" />
  <path d="M 24.5 63.5  C 27.86 63.5  30.5 66.14  30.5 69.5  C 30.5 72.86  27.86 75.5  24.5 75.5  C 21.14 75.5  18.5 72.86  18.5 69.5  C 18.5 66.14  21.14 63.5  24.5 63.5  Z " stroke-width="1" stroke="#797979" fill="none" />
  <path d="M 24.5 72.75  C 22.68 72.75  21.25 71.32  21.25 69.5  C 21.25 67.68  22.68 66.25  24.5 66.25  C 26.32 66.25  27.75 67.68  27.75 69.5  C 27.75 71.32  26.32 72.75  24.5 72.75  " fill-rule="nonzero" fill="#797979" stroke="none" />
</svg>