<?xml version="1.0" encoding="utf-8"?>
<svg version="1.1" xmlns:xlink="http://www.w3.org/1999/xlink" width="8px" height="12px" xmlns="http://www.w3.org/2000/svg">
  <g transform="matrix(1 0 0 1 -266 -114 )">
    <path d="M 7.86254295532646 5.7234468937875755  C 7.954180985108821 5.803607214428857  8 5.895791583166332  8 6  C 8 6.104208416833666  7.954180985108821 6.196392785571142  7.86254295532646 6.2765531062124245  L 1.4570446735395188 11.879759519038076  C 1.3654066437571593 11.959919839679358  1.2600229095074456 12  1.140893470790378 12  C 1.0217640320733106 12  0.9163802978235969 11.959919839679358  0.8247422680412371 11.879759519038076  L 0.13745704467353953 11.278557114228457  C 0.04581901489117987 11.198396793587174  0 11.1062124248497  0 11.002004008016032  C 0 10.897795591182364  0.04581901489117987 10.80561122244489  0.13745704467353953 10.725450901803608  L 5.5395189003436425 6  L 0.13745704467353953 1.2745490981963927  C 0.04581901489117987 1.1943887775551096  0 1.1022044088176348  0 0.9979959919839683  C 0 0.893787575150299  0.04581901489117987 0.8016032064128242  0.13745704467353953 0.7214428857715425  L 0.8247422680412371 0.12024048096192397  C 0.9163802978235969 0.04008016032064088  1.0217640320733106 0  1.140893470790378 0  C 1.2600229095074456 0  1.3654066437571593 0.04008016032064088  1.4570446735395188 0.12024048096192397  L 7.86254295532646 5.7234468937875755  Z " fill-rule="nonzero" fill="#d7d7d7" stroke="none" transform="matrix(1 0 0 1 266 114 )" />
  </g>
</svg>