<?xml version="1.0" encoding="utf-8"?>
<svg version="1.1" xmlns:xlink="http://www.w3.org/1999/xlink" width="11px" height="19px" xmlns="http://www.w3.org/2000/svg">
  <g transform="matrix(1 0 0 1 -821 -550 )">
    <path d="M 10.810996563573882 9.062124248496994  C 10.93699885452463 9.189044756179024  11 9.335003340013358  11 9.5  C 11 9.664996659986638  10.93699885452463 9.810955243820974  10.810996563573882 9.937875751503006  L 2.0034364261168385 18.809619238476955  C 1.877434135166094 18.936539746158985  1.7325315005727377 19  1.5687285223367697 19  C 1.404925544100802 19  1.2600229095074458 18.936539746158985  1.134020618556701 18.809619238476955  L 0.18900343642611686 17.857715430861724  C 0.06300114547537232 17.73079492317969  0 17.584836339345358  0 17.419839679358716  C 0 17.254843019372075  0.06300114547537232 17.108884435537743  0.18900343642611686 16.981963927855713  L 7.616838487972508 9.5  L 0.18900343642611686 2.0180360721442883  C 0.06300114547537232 1.891115564462257  0 1.7451569806279217  0 1.580160320641283  C 0 1.41516366065464  0.06300114547537232 1.2692050768203051  0.18900343642611686 1.1422845691382757  L 1.134020618556701 0.19038076152304628  C 1.2600229095074458 0.06346025384101472  1.404925544100802 0  1.5687285223367697 0  C 1.7325315005727377 0  1.877434135166094 0.06346025384101472  2.0034364261168385 0.19038076152304628  L 10.810996563573882 9.062124248496994  Z " fill-rule="nonzero" fill="#d7d7d7" stroke="none" transform="matrix(1 0 0 1 821 550 )" />
  </g>
</svg>