<?xml version="1.0" encoding="utf-8"?>
<svg version="1.1" xmlns:xlink="http://www.w3.org/1999/xlink" width="44px" height="44px" xmlns="http://www.w3.org/2000/svg">
  <g transform="matrix(1 0 0 1 -778 -173 )">
    <path d="M 800 173.5  C 812.04 173.5  821.5 182.96  821.5 195  C 821.5 207.04  812.04 216.5  800 216.5  C 787.96 216.5  778.5 207.04  778.5 195  C 778.5 182.96  787.96 173.5  800 173.5  Z " fill-rule="nonzero" fill="#ffffff" stroke="none" />
    <path d="M 800 173.5  C 812.04 173.5  821.5 182.96  821.5 195  C 821.5 207.04  812.04 216.5  800 216.5  C 787.96 216.5  778.5 207.04  778.5 195  C 778.5 182.96  787.96 173.5  800 173.5  Z " stroke-width="1" stroke="#a2c667" fill="none" stroke-opacity="0.6196078431372549" />
  </g>
</svg>