<?xml version="1.0" encoding="utf-8"?>
<svg version="1.1" xmlns:xlink="http://www.w3.org/1999/xlink" width="10px" height="10px" xmlns="http://www.w3.org/2000/svg">
  <g transform="matrix(1 0 0 1 -574 -441 )">
    <path d="M 579 441.5  C 581.52 441.5  583.5 443.48  583.5 446  C 583.5 448.52  581.52 450.5  579 450.5  C 576.48 450.5  574.5 448.52  574.5 446  C 574.5 443.48  576.48 441.5  579 441.5  Z " fill-rule="nonzero" fill="#ffffff" stroke="none" />
    <path d="M 579 441.5  C 581.52 441.5  583.5 443.48  583.5 446  C 583.5 448.52  581.52 450.5  579 450.5  C 576.48 450.5  574.5 448.52  574.5 446  C 574.5 443.48  576.48 441.5  579 441.5  Z " stroke-width="1" stroke="#63a103" fill="none" stroke-opacity="0.6196078431372549" />
  </g>
</svg>