<?xml version="1.0" encoding="utf-8"?>
<svg version="1.1" xmlns:xlink="http://www.w3.org/1999/xlink" width="56px" height="56px" xmlns="http://www.w3.org/2000/svg">
  <g transform="matrix(1 0 0 1 -582 -135 )">
    <path d="M 610 135.5  C 625.4 135.5  637.5 147.6  637.5 163  C 637.5 178.4  625.4 190.5  610 190.5  C 594.6 190.5  582.5 178.4  582.5 163  C 582.5 147.6  594.6 135.5  610 135.5  Z " fill-rule="nonzero" fill="#ffffff" stroke="none" />
    <path d="M 610 135.5  C 625.4 135.5  637.5 147.6  637.5 163  C 637.5 178.4  625.4 190.5  610 190.5  C 594.6 190.5  582.5 178.4  582.5 163  C 582.5 147.6  594.6 135.5  610 135.5  Z " stroke-width="1" stroke="#a2c667" fill="none" stroke-opacity="0.6196078431372549" />
  </g>
</svg>