<?xml version="1.0" encoding="utf-8"?>
<svg version="1.1" xmlns:xlink="http://www.w3.org/1999/xlink" width="32px" height="18px" xmlns="http://www.w3.org/2000/svg">
  <g transform="matrix(1 0 0 1 -817 -73 )">
    <path d="M 4 3.599999999999999  L 26.666666666666668 3.599999999999999  L 26.666666666666668 14.4  L 4 14.4  L 4 3.599999999999999  Z M 28.444444444444443 15.75  L 28.444444444444443 11.700000000000001  L 30.22222222222222 11.700000000000001  L 30.22222222222222 6.3  L 28.444444444444443 6.3  L 28.444444444444443 2.25  C 28.444444444444443 2.1187499999999977  28.40277777777778 2.0109375  28.319444444444443 1.9265625000000004  C 28.23611111111111 1.8421874999999992  28.129629629629633 1.7999999999999996  28 2  L 2.2222222222222223 2  C 2.092592592592593 1.7999999999999996  1.9861111111111112 1.8421874999999992  1.9027777777777777 1.9265625000000004  C 1.8194444444444444 2.0109375  1.7777777777777777 2.1187499999999977  2 2.25  L 2 15.75  C 1.7777777777777777 15.881249999999998  1.8194444444444444 15.989062500000001  1.9027777777777777 16.0734375  C 1.9861111111111112 16.157812500000002  2.092592592592593 16.2  2.2222222222222223 16  L 28 16  C 28.129629629629633 16.2  28.23611111111111 16.157812500000002  28.319444444444443 16.0734375  C 28.40277777777778 15.989062500000001  28.444444444444443 15.881249999999998  28.444444444444443 15.75  Z M 31.479166666666668 5.02734375  C 31.82638888888889 5.378906249999998  32 5.803124999999998  32 6.3  L 32 11.700000000000001  C 32 12.196874999999999  31.82638888888889 12.62109375  31.479166666666668 12.97265625  C 31.131944444444443 13.32421875  30.712962962962965 13.5  30.22222222222222 13.5  L 30.22222222222222 15.75  C 30.22222222222222 16.368750000000002  30.004629629629633 16.8984375  29.569444444444443 17.3390625  C 29.134259259259263 17.779687499999998  28.61111111111111 18  28 18  L 2.2222222222222223 18  C 1.6111111111111112 18  1.087962962962963 17.779687499999998  0.6527777777777778 17.3390625  C 0.2175925925925926 16.8984375  0 16.368750000000002  0 15.75  L 0 2.25  C 0 1.6312499999999992  0.2175925925925926 1.1015624999999993  0.6527777777777778 0.6609375000000004  C 1.087962962962963 0.22031249999999747  1.6111111111111112 0  2.2222222222222223 0  L 28 0  C 28.61111111111111 0  29.134259259259263 0.22031249999999747  29.569444444444443 0.6609375000000004  C 30.004629629629633 1.1015624999999993  30.22222222222222 1.6312499999999992  30.22222222222222 2.25  L 30.22222222222222 4.5  C 30.712962962962965 4.499999999999998  31.131944444444443 4.675781249999998  31.479166666666668 5.02734375  Z " fill-rule="nonzero" fill="#ffffff" stroke="none" transform="matrix(1 0 0 1 817 73 )" />
  </g>
</svg>