<?xml version="1.0" encoding="utf-8"?>
<svg version="1.1" xmlns:xlink="http://www.w3.org/1999/xlink" width="21px" height="18px" xmlns="http://www.w3.org/2000/svg">
  <g transform="matrix(1 0 0 1 -787 -73 )">
    <path d="M 2.89453125 15.10546875  C 2.9648437500000004 15.17578125  3 15.265625  3 15.375  L 3 17.625  C 3 17.734375  2.9648437500000004 17.82421875  2.89453125 17.89453125  C 2.82421875 17.96484375  2.734375 18  2.625 18  L 0.375 18  C 0.265625 18  0.17578125000000003 17.96484375  0.10546875000000001 17.89453125  C 0.03515625 17.82421875  0 17.734375  0 17.625  L 0 15.375  C 0 15.265625  0.03515625 15.17578125  0.10546875000000001 15.10546875  C 0.17578125000000003 15.03515625  0.265625 15  0.375 15  L 2.625 15  C 2.734375 15  2.82421875 15.03515625  2.89453125 15.10546875  Z M 7.39453125 13.60546875  C 7.46484375 13.67578125  7.5 13.765625000000002  7.5 13.875  L 7.5 17.625  C 7.5 17.734375  7.46484375 17.82421875  7.39453125 17.89453125  C 7.324218750000001 17.96484375  7.234375 18  7.125 18  L 4.875 18  C 4.765625000000001 18  4.675781250000001 17.96484375  4.60546875 17.89453125  C 4.53515625 17.82421875  4.5 17.734375  4.5 17.625  L 4.5 13.875  C 4.5 13.765625000000002  4.53515625 13.67578125  4.60546875 13.60546875  C 4.675781250000001 13.53515625  4.765625000000001 13.5  4.875 13.5  L 7.125 13.5  C 7.234375 13.5  7.324218750000001 13.53515625  7.39453125 13.60546875  Z M 11.89453125 10.605468749999998  C 11.96484375 10.675781249999998  12 10.765624999999998  12 10.875000000000002  L 12 17.625  C 12 17.734375  11.96484375 17.82421875  11.89453125 17.89453125  C 11.82421875 17.96484375  11.734375000000002 18  11.625 18  L 9.375 18  C 9.265625 18  9.175781250000002 17.96484375  9.10546875 17.89453125  C 9.03515625 17.82421875  9 17.734375  9 17.625  L 9 10.875000000000002  C 9 10.765624999999998  9.03515625 10.675781249999998  9.10546875 10.605468749999998  C 9.175781250000002 10.535156249999998  9.265625 10.499999999999998  9.375 10.499999999999998  L 11.625 10.499999999999998  C 11.734375000000002 10.499999999999998  11.82421875 10.535156249999998  11.89453125 10.605468749999998  Z M 16.39453125 6.105468750000001  C 16.46484375 6.175781250000001  16.5 6.265625  16.5 6.374999999999999  L 16.5 17.625  C 16.5 17.734375  16.46484375 17.82421875  16.39453125 17.89453125  C 16.32421875 17.96484375  16.234375 18  16.125 18  L 13.875 18  C 13.765625000000002 18  13.67578125 17.96484375  13.60546875 17.89453125  C 13.53515625 17.82421875  13.500000000000002 17.734375  13.500000000000002 17.625  L 13.500000000000002 6.374999999999999  C 13.500000000000002 6.265625  13.53515625 6.175781250000001  13.60546875 6.105468750000001  C 13.67578125 6.035156250000001  13.765625000000002 6.000000000000001  13.875 6.000000000000001  L 16.125 6.000000000000001  C 16.234375 6.000000000000001  16.32421875 6.035156250000001  16.39453125 6.105468750000001  Z M 20.89453125 0.10546875  C 20.96484375 0.17578125  21 0.26562499999999756  21 0.37500000000000067  L 21 17.625  C 21 17.734375  20.96484375 17.82421875  20.89453125 17.89453125  C 20.82421875 17.96484375  20.734375000000004 18  20.625 18  L 18.375 18  C 18.265625000000004 18  18.175781250000004 17.96484375  18.10546875 17.89453125  C 18.03515625 17.82421875  18 17.734375  18 17.625  L 18 0.37500000000000067  C 18 0.26562499999999756  18.03515625 0.17578125  18.10546875 0.10546875  C 18.175781250000004 0.03515625  18.265625000000004 0  18.375 0  L 20.625 0  C 20.734375000000004 0  20.82421875 0.03515625  20.89453125 0.10546875  Z " fill-rule="nonzero" fill="#ffffff" stroke="none" transform="matrix(1 0 0 1 787 73 )" />
  </g>
</svg>