<?xml version="1.0" encoding="utf-8"?>
<svg version="1.1" xmlns:xlink="http://www.w3.org/1999/xlink" width="13px" height="13px" viewBox="584 324  13 13" xmlns="http://www.w3.org/2000/svg">
  <path d="M 590.5 324  C 594.14 324  597 326.86  597 330.5  C 597 334.14  594.14 337  590.5 337  C 586.86 337  584 334.14  584 330.5  C 584 326.86  586.86 324  590.5 324  Z " fill-rule="nonzero" fill="#f0f0f0" stroke="none" />
  <path d="M 590.5 324.5  C 593.86 324.5  596.5 327.14  596.5 330.5  C 596.5 333.86  593.86 336.5  590.5 336.5  C 587.14 336.5  584.5 333.86  584.5 330.5  C 584.5 327.14  587.14 324.5  590.5 324.5  Z " stroke-width="1" stroke="#797979" fill="none" />
  <path d="M 590.5 333.75  C 588.68 333.75  587.25 332.32  587.25 330.5  C 587.25 328.68  588.68 327.25  590.5 327.25  C 592.32 327.25  593.75 328.68  593.75 330.5  C 593.75 332.32  592.32 333.75  590.5 333.75  " fill-rule="nonzero" fill="#797979" stroke="none" />
</svg>