<?xml version="1.0" encoding="utf-8"?>
<svg version="1.1" xmlns:xlink="http://www.w3.org/1999/xlink" width="13px" height="13px" viewBox="584 219  13 13" xmlns="http://www.w3.org/2000/svg">
  <path d="M 590.5 219  C 594.14 219  597 221.86  597 225.5  C 597 229.14  594.14 232  590.5 232  C 586.86 232  584 229.14  584 225.5  C 584 221.86  586.86 219  590.5 219  Z " fill-rule="nonzero" fill="#f0f0f0" stroke="none" />
  <path d="M 590.5 219.5  C 593.86 219.5  596.5 222.14  596.5 225.5  C 596.5 228.86  593.86 231.5  590.5 231.5  C 587.14 231.5  584.5 228.86  584.5 225.5  C 584.5 222.14  587.14 219.5  590.5 219.5  Z " stroke-width="1" stroke="#797979" fill="none" />
  <path d="M 590.5 228.75  C 588.68 228.75  587.25 227.32  587.25 225.5  C 587.25 223.68  588.68 222.25  590.5 222.25  C 592.32 222.25  593.75 223.68  593.75 225.5  C 593.75 227.32  592.32 228.75  590.5 228.75  " fill-rule="nonzero" fill="#797979" stroke="none" />
</svg>