<?xml version="1.0" encoding="utf-8"?>
<svg version="1.1" xmlns:xlink="http://www.w3.org/1999/xlink" width="15px" height="23px" xmlns="http://www.w3.org/2000/svg">
  <g transform="matrix(1 0 0 1 -565 -104 )">
    <path d="M 14.742268041237113 1.3827655310621232  C 14.91408934707904 1.5364061456245799  15 1.7130928523714064  15 1.9128256513026058  C 15 2.1125584502338  14.91408934707904 2.289245156980627  14.742268041237113 2.442885771543086  L 4.613402061855671 11.5  L 14.742268041237113 20.557114228456914  C 14.91408934707904 20.710754843019373  15 20.887441549766198  15 21.087174348697395  C 15 21.28690714762859  14.91408934707904 21.463593854375414  14.742268041237113 21.617234468937877  L 13.45360824742268 22.769539078156313  C 13.281786941580757 22.923179692718772  13.084192439862544 23  12.86082474226804 23  C 12.63745704467354 23  12.439862542955328 22.923179692718772  12.268041237113401 22.769539078156313  L 0.2577319587628866 12.03006012024048  C 0.08591065292096225 11.87641950567802  0 11.699732798931194  0 11.5  C 0 11.300267201068802  0.08591065292096225 11.123580494321976  0.2577319587628866 10.96993987975952  L 12.268041237113401 0.2304609218436876  C 12.439862542955328 0.07682030728122835  12.63745704467354 0  12.86082474226804 0  C 13.084192439862544 0  13.281786941580757 0.07682030728122835  13.45360824742268 0.2304609218436876  L 14.742268041237113 1.3827655310621232  Z " fill-rule="nonzero" fill="#d7d7d7" stroke="none" transform="matrix(1 0 0 1 565 104 )" />
  </g>
</svg>